<mxfile host="app.diagrams.net" agent="Mozilla/5.0 (Windows NT 10.0; Win64; x64) AppleWebKit/537.36 (KHTML, like Gecko) Chrome/138.0.0.0 Safari/537.36" border="50" scale="3" compressed="false" locked="false" version="28.0.7">
  <diagram name="Blank" id="YmL12bMKpDGza6XwsDPr">
    <mxGraphModel dx="1975" dy="1489" grid="1" gridSize="10" guides="1" tooltips="1" connect="1" arrows="1" fold="1" page="1" pageScale="1" pageWidth="827" pageHeight="1169" background="none" math="1" shadow="0" adaptiveColors="simple">
      <root>
        <mxCell id="X5NqExCQtvZxIxQ7pmgY-0" />
        <mxCell id="1" parent="X5NqExCQtvZxIxQ7pmgY-0" />
        <mxCell id="Xtbtvbpdz62l11RlzFsb-3" style="edgeStyle=entityRelationEdgeStyle;rounded=0;orthogonalLoop=1;jettySize=auto;html=1;startArrow=none;endArrow=none;segment=10;curved=1;sourcePerimeterSpacing=0;targetPerimeterSpacing=0;labelBackgroundColor=none;fontColor=default;" edge="1" parent="1" source="Xtbtvbpdz62l11RlzFsb-1" target="Xtbtvbpdz62l11RlzFsb-4">
          <mxGeometry relative="1" as="geometry">
            <mxPoint x="402.8545793805804" y="257.7011805943081" as="targetPoint" />
          </mxGeometry>
        </mxCell>
        <mxCell id="Xtbtvbpdz62l11RlzFsb-6" style="edgeStyle=entityRelationEdgeStyle;rounded=0;orthogonalLoop=1;jettySize=auto;html=1;startArrow=none;endArrow=none;segment=10;curved=1;sourcePerimeterSpacing=0;targetPerimeterSpacing=0;labelBackgroundColor=none;fontColor=default;" edge="1" parent="1" source="Xtbtvbpdz62l11RlzFsb-1" target="Xtbtvbpdz62l11RlzFsb-5">
          <mxGeometry relative="1" as="geometry" />
        </mxCell>
        <mxCell id="Xtbtvbpdz62l11RlzFsb-8" style="edgeStyle=entityRelationEdgeStyle;rounded=0;orthogonalLoop=1;jettySize=auto;html=1;startArrow=none;endArrow=none;segment=10;curved=1;sourcePerimeterSpacing=0;targetPerimeterSpacing=0;labelBackgroundColor=none;fontColor=default;" edge="1" parent="1" source="Xtbtvbpdz62l11RlzFsb-1" target="Xtbtvbpdz62l11RlzFsb-7">
          <mxGeometry relative="1" as="geometry" />
        </mxCell>
        <mxCell id="Xtbtvbpdz62l11RlzFsb-9" style="edgeStyle=entityRelationEdgeStyle;rounded=0;orthogonalLoop=1;jettySize=auto;html=1;startArrow=none;endArrow=none;segment=10;curved=1;sourcePerimeterSpacing=0;targetPerimeterSpacing=0;labelBackgroundColor=none;fontColor=default;" edge="1" parent="1" source="Xtbtvbpdz62l11RlzFsb-1" target="Xtbtvbpdz62l11RlzFsb-10">
          <mxGeometry relative="1" as="geometry">
            <mxPoint x="286.4171447753906" y="550.8926849365234" as="targetPoint" />
          </mxGeometry>
        </mxCell>
        <mxCell id="Xtbtvbpdz62l11RlzFsb-1" value="Безопасность данных" style="ellipse;whiteSpace=wrap;html=1;align=center;newEdgeStyle={&quot;edgeStyle&quot;:&quot;entityRelationEdgeStyle&quot;,&quot;startArrow&quot;:&quot;none&quot;,&quot;endArrow&quot;:&quot;none&quot;,&quot;segment&quot;:10,&quot;curved&quot;:1,&quot;sourcePerimeterSpacing&quot;:0,&quot;targetPerimeterSpacing&quot;:0};treeFolding=1;treeMoving=1;rotation=0;labelBackgroundColor=none;rounded=0;" vertex="1" parent="1">
          <mxGeometry x="50" y="642" width="150" height="58" as="geometry" />
        </mxCell>
        <mxCell id="Xtbtvbpdz62l11RlzFsb-27" style="edgeStyle=entityRelationEdgeStyle;rounded=0;orthogonalLoop=1;jettySize=auto;html=1;startArrow=none;endArrow=none;segment=10;curved=1;sourcePerimeterSpacing=0;targetPerimeterSpacing=0;" edge="1" parent="1" source="Xtbtvbpdz62l11RlzFsb-4" target="Xtbtvbpdz62l11RlzFsb-26">
          <mxGeometry relative="1" as="geometry" />
        </mxCell>
        <mxCell id="Xtbtvbpdz62l11RlzFsb-63" style="edgeStyle=entityRelationEdgeStyle;rounded=0;orthogonalLoop=1;jettySize=auto;html=1;startArrow=none;endArrow=none;segment=10;curved=1;sourcePerimeterSpacing=0;targetPerimeterSpacing=0;" edge="1" parent="1" source="Xtbtvbpdz62l11RlzFsb-4" target="Xtbtvbpdz62l11RlzFsb-62">
          <mxGeometry relative="1" as="geometry" />
        </mxCell>
        <mxCell id="Xtbtvbpdz62l11RlzFsb-71" style="edgeStyle=entityRelationEdgeStyle;rounded=0;orthogonalLoop=1;jettySize=auto;html=1;startArrow=none;endArrow=none;segment=10;curved=1;sourcePerimeterSpacing=0;targetPerimeterSpacing=0;" edge="1" parent="1" source="Xtbtvbpdz62l11RlzFsb-4" target="Xtbtvbpdz62l11RlzFsb-70">
          <mxGeometry relative="1" as="geometry" />
        </mxCell>
        <mxCell id="Xtbtvbpdz62l11RlzFsb-75" style="edgeStyle=entityRelationEdgeStyle;rounded=0;orthogonalLoop=1;jettySize=auto;html=1;startArrow=none;endArrow=none;segment=10;curved=1;sourcePerimeterSpacing=0;targetPerimeterSpacing=0;" edge="1" parent="1" source="Xtbtvbpdz62l11RlzFsb-4" target="Xtbtvbpdz62l11RlzFsb-74">
          <mxGeometry relative="1" as="geometry" />
        </mxCell>
        <mxCell id="Xtbtvbpdz62l11RlzFsb-77" style="edgeStyle=entityRelationEdgeStyle;rounded=0;orthogonalLoop=1;jettySize=auto;html=1;startArrow=none;endArrow=none;segment=10;curved=1;sourcePerimeterSpacing=0;targetPerimeterSpacing=0;entryX=0;entryY=0.5;entryDx=0;entryDy=0;" edge="1" parent="1" source="Xtbtvbpdz62l11RlzFsb-4" target="Xtbtvbpdz62l11RlzFsb-76">
          <mxGeometry relative="1" as="geometry" />
        </mxCell>
        <mxCell id="Xtbtvbpdz62l11RlzFsb-4" value="&lt;span style=&quot;color: rgba(0, 0, 0, 0.85); font-family: &amp;quot;YS Text&amp;quot;, sans-serif; text-align: left; white-space-collapse: preserve-breaks;&quot;&gt;&lt;font&gt;Публичные данные:&lt;/font&gt;&lt;/span&gt;&lt;div style=&quot;text-align: left;&quot;&gt;&lt;span style=&quot;color: rgba(0, 0, 0, 0.85); font-family: &amp;quot;YS Text&amp;quot;, sans-serif; white-space-collapse: preserve-breaks;&quot;&gt;&lt;font style=&quot;font-size: 10px;&quot;&gt;1. Данные о недвижимости на сайте&lt;/font&gt;&lt;/span&gt;&lt;/div&gt;&lt;div style=&quot;text-align: left;&quot;&gt;&lt;span style=&quot;color: rgba(0, 0, 0, 0.85); font-family: &amp;quot;YS Text&amp;quot;, sans-serif; white-space-collapse: preserve-breaks;&quot;&gt;&lt;font style=&quot;font-size: 10px;&quot;&gt;2. Предлагаемые услуги&lt;/font&gt;&lt;/span&gt;&lt;/div&gt;&lt;div style=&quot;text-align: left;&quot;&gt;&lt;span style=&quot;color: rgba(0, 0, 0, 0.85); font-family: &amp;quot;YS Text&amp;quot;, sans-serif; white-space-collapse: preserve-breaks;&quot;&gt;&lt;font&gt;&lt;br&gt;&lt;/font&gt;&lt;/span&gt;&lt;/div&gt;" style="ellipse;whiteSpace=wrap;html=1;align=center;newEdgeStyle={&quot;edgeStyle&quot;:&quot;entityRelationEdgeStyle&quot;,&quot;startArrow&quot;:&quot;none&quot;,&quot;endArrow&quot;:&quot;none&quot;,&quot;segment&quot;:10,&quot;curved&quot;:1,&quot;sourcePerimeterSpacing&quot;:0,&quot;targetPerimeterSpacing&quot;:0};treeFolding=1;treeMoving=1;labelBackgroundColor=none;rounded=0;textShadow=0;labelBorderColor=none;" vertex="1" parent="1">
          <mxGeometry x="322.85" y="90" width="227.15" height="100" as="geometry" />
        </mxCell>
        <mxCell id="Xtbtvbpdz62l11RlzFsb-87" style="edgeStyle=entityRelationEdgeStyle;rounded=0;orthogonalLoop=1;jettySize=auto;html=1;startArrow=none;endArrow=none;segment=10;curved=1;sourcePerimeterSpacing=0;targetPerimeterSpacing=0;" edge="1" parent="1" source="Xtbtvbpdz62l11RlzFsb-5" target="Xtbtvbpdz62l11RlzFsb-84">
          <mxGeometry relative="1" as="geometry" />
        </mxCell>
        <mxCell id="Xtbtvbpdz62l11RlzFsb-88" style="edgeStyle=entityRelationEdgeStyle;rounded=0;orthogonalLoop=1;jettySize=auto;html=1;startArrow=none;endArrow=none;segment=10;curved=1;sourcePerimeterSpacing=0;targetPerimeterSpacing=0;" edge="1" parent="1" source="Xtbtvbpdz62l11RlzFsb-5" target="Xtbtvbpdz62l11RlzFsb-82">
          <mxGeometry relative="1" as="geometry" />
        </mxCell>
        <mxCell id="Xtbtvbpdz62l11RlzFsb-89" style="edgeStyle=entityRelationEdgeStyle;rounded=0;orthogonalLoop=1;jettySize=auto;html=1;startArrow=none;endArrow=none;segment=10;curved=1;sourcePerimeterSpacing=0;targetPerimeterSpacing=0;" edge="1" parent="1" source="Xtbtvbpdz62l11RlzFsb-5" target="Xtbtvbpdz62l11RlzFsb-83">
          <mxGeometry relative="1" as="geometry" />
        </mxCell>
        <mxCell id="Xtbtvbpdz62l11RlzFsb-90" style="edgeStyle=entityRelationEdgeStyle;rounded=0;orthogonalLoop=1;jettySize=auto;html=1;startArrow=none;endArrow=none;segment=10;curved=1;sourcePerimeterSpacing=0;targetPerimeterSpacing=0;" edge="1" parent="1" source="Xtbtvbpdz62l11RlzFsb-5" target="Xtbtvbpdz62l11RlzFsb-85">
          <mxGeometry relative="1" as="geometry" />
        </mxCell>
        <mxCell id="Xtbtvbpdz62l11RlzFsb-91" style="edgeStyle=entityRelationEdgeStyle;rounded=0;orthogonalLoop=1;jettySize=auto;html=1;startArrow=none;endArrow=none;segment=10;curved=1;sourcePerimeterSpacing=0;targetPerimeterSpacing=0;" edge="1" parent="1" source="Xtbtvbpdz62l11RlzFsb-5" target="Xtbtvbpdz62l11RlzFsb-86">
          <mxGeometry relative="1" as="geometry" />
        </mxCell>
        <mxCell id="Xtbtvbpdz62l11RlzFsb-5" value="Внутренние данные:&lt;br&gt;&lt;div style=&quot;text-align: left;&quot;&gt;&lt;span style=&quot;background-color: transparent; color: light-dark(rgb(0, 0, 0), rgb(255, 255, 255));&quot;&gt;&lt;font style=&quot;font-size: 10px;&quot;&gt;1. Техническая документация&amp;nbsp;&lt;/font&gt;&lt;/span&gt;&lt;/div&gt;&lt;div style=&quot;text-align: left;&quot;&gt;&lt;span style=&quot;font-size: 10px;&quot;&gt;2. Логи систем&lt;/span&gt;&lt;/div&gt;&lt;div style=&quot;text-align: left;&quot;&gt;&lt;span style=&quot;font-size: 10px;&quot;&gt;3. Внутренние инструкции&lt;/span&gt;&lt;/div&gt;" style="ellipse;whiteSpace=wrap;html=1;align=center;newEdgeStyle={&quot;edgeStyle&quot;:&quot;entityRelationEdgeStyle&quot;,&quot;startArrow&quot;:&quot;none&quot;,&quot;endArrow&quot;:&quot;none&quot;,&quot;segment&quot;:10,&quot;curved&quot;:1,&quot;sourcePerimeterSpacing&quot;:0,&quot;targetPerimeterSpacing&quot;:0};treeFolding=1;treeMoving=1;labelBackgroundColor=none;rounded=0;" vertex="1" parent="1">
          <mxGeometry x="322.85" y="520" width="247.15" height="100" as="geometry" />
        </mxCell>
        <mxCell id="Xtbtvbpdz62l11RlzFsb-144" style="edgeStyle=entityRelationEdgeStyle;rounded=0;orthogonalLoop=1;jettySize=auto;html=1;startArrow=none;endArrow=none;segment=10;curved=1;sourcePerimeterSpacing=0;targetPerimeterSpacing=0;" edge="1" parent="1" source="Xtbtvbpdz62l11RlzFsb-7" target="Xtbtvbpdz62l11RlzFsb-93">
          <mxGeometry relative="1" as="geometry" />
        </mxCell>
        <mxCell id="Xtbtvbpdz62l11RlzFsb-146" style="edgeStyle=entityRelationEdgeStyle;rounded=0;orthogonalLoop=1;jettySize=auto;html=1;startArrow=none;endArrow=none;segment=10;curved=1;sourcePerimeterSpacing=0;targetPerimeterSpacing=0;" edge="1" parent="1" source="Xtbtvbpdz62l11RlzFsb-7" target="Xtbtvbpdz62l11RlzFsb-94">
          <mxGeometry relative="1" as="geometry" />
        </mxCell>
        <mxCell id="Xtbtvbpdz62l11RlzFsb-147" style="edgeStyle=entityRelationEdgeStyle;rounded=0;orthogonalLoop=1;jettySize=auto;html=1;startArrow=none;endArrow=none;segment=10;curved=1;sourcePerimeterSpacing=0;targetPerimeterSpacing=0;" edge="1" parent="1" source="Xtbtvbpdz62l11RlzFsb-7" target="Xtbtvbpdz62l11RlzFsb-92">
          <mxGeometry relative="1" as="geometry" />
        </mxCell>
        <mxCell id="Xtbtvbpdz62l11RlzFsb-148" style="edgeStyle=entityRelationEdgeStyle;rounded=0;orthogonalLoop=1;jettySize=auto;html=1;startArrow=none;endArrow=none;segment=10;curved=1;sourcePerimeterSpacing=0;targetPerimeterSpacing=0;" edge="1" parent="1" source="Xtbtvbpdz62l11RlzFsb-7" target="Xtbtvbpdz62l11RlzFsb-95">
          <mxGeometry relative="1" as="geometry" />
        </mxCell>
        <mxCell id="Xtbtvbpdz62l11RlzFsb-149" style="edgeStyle=entityRelationEdgeStyle;rounded=0;orthogonalLoop=1;jettySize=auto;html=1;startArrow=none;endArrow=none;segment=10;curved=1;sourcePerimeterSpacing=0;targetPerimeterSpacing=0;" edge="1" parent="1" source="Xtbtvbpdz62l11RlzFsb-7" target="Xtbtvbpdz62l11RlzFsb-96">
          <mxGeometry relative="1" as="geometry" />
        </mxCell>
        <mxCell id="Xtbtvbpdz62l11RlzFsb-7" value="&lt;div style=&quot;text-align: center;&quot;&gt;&lt;span style=&quot;background-color: transparent; color: light-dark(rgb(0, 0, 0), rgb(255, 255, 255));&quot;&gt;Конфиденциальные данные&lt;/span&gt;&lt;/div&gt;&lt;div style=&quot;&quot;&gt;&lt;font size=&quot;1&quot;&gt;&lt;span style=&quot;white-space: pre;&quot;&gt;&#x9;&lt;/span&gt;1. Персональные данные сотрудников и клиентов&lt;/font&gt;&lt;/div&gt;&lt;div style=&quot;&quot;&gt;&lt;font size=&quot;1&quot;&gt;&lt;span style=&quot;white-space: pre;&quot;&gt;&#x9;&lt;/span&gt;2. Финансовая отчетность&lt;/font&gt;&lt;/div&gt;" style="ellipse;whiteSpace=wrap;html=1;align=left;newEdgeStyle={&quot;edgeStyle&quot;:&quot;entityRelationEdgeStyle&quot;,&quot;startArrow&quot;:&quot;none&quot;,&quot;endArrow&quot;:&quot;none&quot;,&quot;segment&quot;:10,&quot;curved&quot;:1,&quot;sourcePerimeterSpacing&quot;:0,&quot;targetPerimeterSpacing&quot;:0};treeFolding=1;treeMoving=1;labelBackgroundColor=none;rounded=0;" vertex="1" parent="1">
          <mxGeometry x="314.42" y="894.29" width="264" height="113" as="geometry" />
        </mxCell>
        <mxCell id="Xtbtvbpdz62l11RlzFsb-145" style="edgeStyle=entityRelationEdgeStyle;rounded=0;orthogonalLoop=1;jettySize=auto;html=1;startArrow=none;endArrow=none;segment=10;curved=1;sourcePerimeterSpacing=0;targetPerimeterSpacing=0;" edge="1" parent="1" source="Xtbtvbpdz62l11RlzFsb-10" target="Xtbtvbpdz62l11RlzFsb-132">
          <mxGeometry relative="1" as="geometry" />
        </mxCell>
        <mxCell id="Xtbtvbpdz62l11RlzFsb-150" style="edgeStyle=entityRelationEdgeStyle;rounded=0;orthogonalLoop=1;jettySize=auto;html=1;startArrow=none;endArrow=none;segment=10;curved=1;sourcePerimeterSpacing=0;targetPerimeterSpacing=0;" edge="1" parent="1" source="Xtbtvbpdz62l11RlzFsb-10" target="Xtbtvbpdz62l11RlzFsb-134">
          <mxGeometry relative="1" as="geometry" />
        </mxCell>
        <mxCell id="Xtbtvbpdz62l11RlzFsb-151" style="edgeStyle=entityRelationEdgeStyle;rounded=0;orthogonalLoop=1;jettySize=auto;html=1;startArrow=none;endArrow=none;segment=10;curved=1;sourcePerimeterSpacing=0;targetPerimeterSpacing=0;" edge="1" parent="1" source="Xtbtvbpdz62l11RlzFsb-10" target="Xtbtvbpdz62l11RlzFsb-130">
          <mxGeometry relative="1" as="geometry" />
        </mxCell>
        <mxCell id="Xtbtvbpdz62l11RlzFsb-152" style="edgeStyle=entityRelationEdgeStyle;rounded=0;orthogonalLoop=1;jettySize=auto;html=1;startArrow=none;endArrow=none;segment=10;curved=1;sourcePerimeterSpacing=0;targetPerimeterSpacing=0;" edge="1" parent="1" source="Xtbtvbpdz62l11RlzFsb-10" target="Xtbtvbpdz62l11RlzFsb-136">
          <mxGeometry relative="1" as="geometry" />
        </mxCell>
        <mxCell id="Xtbtvbpdz62l11RlzFsb-153" style="edgeStyle=entityRelationEdgeStyle;rounded=0;orthogonalLoop=1;jettySize=auto;html=1;startArrow=none;endArrow=none;segment=10;curved=1;sourcePerimeterSpacing=0;targetPerimeterSpacing=0;" edge="1" parent="1" source="Xtbtvbpdz62l11RlzFsb-10" target="Xtbtvbpdz62l11RlzFsb-138">
          <mxGeometry relative="1" as="geometry" />
        </mxCell>
        <mxCell id="Xtbtvbpdz62l11RlzFsb-10" value="&lt;blockquote style=&quot;margin: 0 0 0 40px; border: none; padding: 0px;&quot;&gt;Cекретные данные:&lt;div&gt;&lt;font style=&quot;font-size: 10px;&quot;&gt;1. Платежные данные&lt;/font&gt;&lt;/div&gt;&lt;div&gt;&lt;font style=&quot;font-size: 10px;&quot;&gt;2. Данные о сделках&lt;/font&gt;&lt;/div&gt;&lt;/blockquote&gt;" style="ellipse;whiteSpace=wrap;html=1;align=left;newEdgeStyle={&quot;edgeStyle&quot;:&quot;entityRelationEdgeStyle&quot;,&quot;startArrow&quot;:&quot;none&quot;,&quot;endArrow&quot;:&quot;none&quot;,&quot;segment&quot;:10,&quot;curved&quot;:1,&quot;sourcePerimeterSpacing&quot;:0,&quot;targetPerimeterSpacing&quot;:0};treeFolding=1;treeMoving=1;labelBackgroundColor=none;rounded=0;" vertex="1" parent="1">
          <mxGeometry x="322.85" y="1280" width="248.58" height="102.75" as="geometry" />
        </mxCell>
        <mxCell id="Xtbtvbpdz62l11RlzFsb-67" style="edgeStyle=entityRelationEdgeStyle;rounded=0;orthogonalLoop=1;jettySize=auto;html=1;startArrow=none;endArrow=none;segment=10;curved=1;sourcePerimeterSpacing=0;targetPerimeterSpacing=0;" edge="1" parent="1" source="Xtbtvbpdz62l11RlzFsb-26" target="Xtbtvbpdz62l11RlzFsb-66">
          <mxGeometry relative="1" as="geometry" />
        </mxCell>
        <mxCell id="Xtbtvbpdz62l11RlzFsb-26" value="Потеря данных&lt;div&gt;Оценка: &lt;b&gt;незначительный&lt;/b&gt;&lt;/div&gt;" style="ellipse;whiteSpace=wrap;html=1;align=center;newEdgeStyle={&quot;edgeStyle&quot;:&quot;entityRelationEdgeStyle&quot;,&quot;startArrow&quot;:&quot;none&quot;,&quot;endArrow&quot;:&quot;none&quot;,&quot;segment&quot;:10,&quot;curved&quot;:1,&quot;sourcePerimeterSpacing&quot;:0,&quot;targetPerimeterSpacing&quot;:0};treeFolding=1;treeMoving=1;labelBackgroundColor=none;rounded=0;textShadow=0;labelBorderColor=none;fontSize=10;" vertex="1" parent="1">
          <mxGeometry x="630" y="80" width="140" height="50" as="geometry" />
        </mxCell>
        <mxCell id="Xtbtvbpdz62l11RlzFsb-69" style="edgeStyle=entityRelationEdgeStyle;rounded=0;orthogonalLoop=1;jettySize=auto;html=1;startArrow=none;endArrow=none;segment=10;curved=1;sourcePerimeterSpacing=0;targetPerimeterSpacing=0;" edge="1" parent="1" source="Xtbtvbpdz62l11RlzFsb-62" target="Xtbtvbpdz62l11RlzFsb-68">
          <mxGeometry relative="1" as="geometry" />
        </mxCell>
        <mxCell id="Xtbtvbpdz62l11RlzFsb-62" value="Искажение данных&lt;br&gt;Оценка: &lt;b&gt;незначительный&lt;/b&gt;" style="ellipse;whiteSpace=wrap;html=1;align=center;newEdgeStyle={&quot;edgeStyle&quot;:&quot;entityRelationEdgeStyle&quot;,&quot;startArrow&quot;:&quot;none&quot;,&quot;endArrow&quot;:&quot;none&quot;,&quot;segment&quot;:10,&quot;curved&quot;:1,&quot;sourcePerimeterSpacing&quot;:0,&quot;targetPerimeterSpacing&quot;:0};treeFolding=1;treeMoving=1;labelBackgroundColor=none;rounded=0;textShadow=0;labelBorderColor=none;fontSize=10;" vertex="1" parent="1">
          <mxGeometry x="630" y="140" width="140" height="50" as="geometry" />
        </mxCell>
        <mxCell id="Xtbtvbpdz62l11RlzFsb-66" value="Низкая вероятность. &lt;br&gt;Может привести к снижению лидов" style="ellipse;whiteSpace=wrap;html=1;align=center;newEdgeStyle={&quot;edgeStyle&quot;:&quot;entityRelationEdgeStyle&quot;,&quot;startArrow&quot;:&quot;none&quot;,&quot;endArrow&quot;:&quot;none&quot;,&quot;segment&quot;:10,&quot;curved&quot;:1,&quot;sourcePerimeterSpacing&quot;:0,&quot;targetPerimeterSpacing&quot;:0};treeFolding=1;treeMoving=1;labelBackgroundColor=none;rounded=0;textShadow=0;labelBorderColor=none;fontSize=10;" vertex="1" parent="1">
          <mxGeometry x="810" y="80" width="200" height="50" as="geometry" />
        </mxCell>
        <mxCell id="Xtbtvbpdz62l11RlzFsb-68" value="Низкая вероятность.&amp;nbsp;&lt;div&gt;Может вызвать недовольство потенциальных клиентов, снижение уровня продаж&lt;/div&gt;" style="ellipse;whiteSpace=wrap;html=1;align=center;newEdgeStyle={&quot;edgeStyle&quot;:&quot;entityRelationEdgeStyle&quot;,&quot;startArrow&quot;:&quot;none&quot;,&quot;endArrow&quot;:&quot;none&quot;,&quot;segment&quot;:10,&quot;curved&quot;:1,&quot;sourcePerimeterSpacing&quot;:0,&quot;targetPerimeterSpacing&quot;:0};treeFolding=1;treeMoving=1;labelBackgroundColor=none;rounded=0;textShadow=0;labelBorderColor=none;fontSize=10;" vertex="1" parent="1">
          <mxGeometry x="817" y="140" width="200" height="50" as="geometry" />
        </mxCell>
        <mxCell id="Xtbtvbpdz62l11RlzFsb-73" style="edgeStyle=entityRelationEdgeStyle;rounded=0;orthogonalLoop=1;jettySize=auto;html=1;startArrow=none;endArrow=none;segment=10;curved=1;sourcePerimeterSpacing=0;targetPerimeterSpacing=0;" edge="1" parent="1" source="Xtbtvbpdz62l11RlzFsb-70" target="Xtbtvbpdz62l11RlzFsb-72">
          <mxGeometry relative="1" as="geometry" />
        </mxCell>
        <mxCell id="Xtbtvbpdz62l11RlzFsb-70" value="Утечка данных&lt;br&gt;Оценка: &lt;b&gt;незначительный&lt;/b&gt;" style="ellipse;whiteSpace=wrap;html=1;align=center;newEdgeStyle={&quot;edgeStyle&quot;:&quot;entityRelationEdgeStyle&quot;,&quot;startArrow&quot;:&quot;none&quot;,&quot;endArrow&quot;:&quot;none&quot;,&quot;segment&quot;:10,&quot;curved&quot;:1,&quot;sourcePerimeterSpacing&quot;:0,&quot;targetPerimeterSpacing&quot;:0};treeFolding=1;treeMoving=1;labelBackgroundColor=none;rounded=0;textShadow=0;labelBorderColor=none;fontSize=10;" vertex="1" parent="1">
          <mxGeometry x="630" y="20" width="140" height="50" as="geometry" />
        </mxCell>
        <mxCell id="Xtbtvbpdz62l11RlzFsb-72" value="Данные и так публичные" style="ellipse;whiteSpace=wrap;html=1;align=center;newEdgeStyle={&quot;edgeStyle&quot;:&quot;entityRelationEdgeStyle&quot;,&quot;startArrow&quot;:&quot;none&quot;,&quot;endArrow&quot;:&quot;none&quot;,&quot;segment&quot;:10,&quot;curved&quot;:1,&quot;sourcePerimeterSpacing&quot;:0,&quot;targetPerimeterSpacing&quot;:0};treeFolding=1;treeMoving=1;labelBackgroundColor=none;rounded=0;textShadow=0;labelBorderColor=none;fontSize=10;" vertex="1" parent="1">
          <mxGeometry x="810" y="20" width="200" height="50" as="geometry" />
        </mxCell>
        <mxCell id="Xtbtvbpdz62l11RlzFsb-80" style="edgeStyle=entityRelationEdgeStyle;rounded=0;orthogonalLoop=1;jettySize=auto;html=1;startArrow=none;endArrow=none;segment=10;curved=1;sourcePerimeterSpacing=0;targetPerimeterSpacing=0;" edge="1" parent="1" source="Xtbtvbpdz62l11RlzFsb-74" target="Xtbtvbpdz62l11RlzFsb-78">
          <mxGeometry relative="1" as="geometry" />
        </mxCell>
        <mxCell id="Xtbtvbpdz62l11RlzFsb-74" value="Некачественные данные&lt;br&gt;Оценка: &lt;b&gt;незначительный&lt;/b&gt;" style="ellipse;whiteSpace=wrap;html=1;align=center;newEdgeStyle={&quot;edgeStyle&quot;:&quot;entityRelationEdgeStyle&quot;,&quot;startArrow&quot;:&quot;none&quot;,&quot;endArrow&quot;:&quot;none&quot;,&quot;segment&quot;:10,&quot;curved&quot;:1,&quot;sourcePerimeterSpacing&quot;:0,&quot;targetPerimeterSpacing&quot;:0};treeFolding=1;treeMoving=1;labelBackgroundColor=none;rounded=0;textShadow=0;labelBorderColor=none;fontSize=10;" vertex="1" parent="1">
          <mxGeometry x="630" y="200" width="140" height="50" as="geometry" />
        </mxCell>
        <mxCell id="Xtbtvbpdz62l11RlzFsb-81" style="edgeStyle=entityRelationEdgeStyle;rounded=0;orthogonalLoop=1;jettySize=auto;html=1;startArrow=none;endArrow=none;segment=10;curved=1;sourcePerimeterSpacing=0;targetPerimeterSpacing=0;" edge="1" parent="1" source="Xtbtvbpdz62l11RlzFsb-76" target="Xtbtvbpdz62l11RlzFsb-79">
          <mxGeometry relative="1" as="geometry" />
        </mxCell>
        <mxCell id="Xtbtvbpdz62l11RlzFsb-76" value="Обесценивание данных&lt;br&gt;Оценка: &lt;b&gt;незначительный&lt;/b&gt;" style="ellipse;whiteSpace=wrap;html=1;align=center;newEdgeStyle={&quot;edgeStyle&quot;:&quot;entityRelationEdgeStyle&quot;,&quot;startArrow&quot;:&quot;none&quot;,&quot;endArrow&quot;:&quot;none&quot;,&quot;segment&quot;:10,&quot;curved&quot;:1,&quot;sourcePerimeterSpacing&quot;:0,&quot;targetPerimeterSpacing&quot;:0};treeFolding=1;treeMoving=1;labelBackgroundColor=none;rounded=0;textShadow=0;labelBorderColor=none;fontSize=10;" vertex="1" parent="1">
          <mxGeometry x="630" y="260" width="140" height="50" as="geometry" />
        </mxCell>
        <mxCell id="Xtbtvbpdz62l11RlzFsb-78" value="Низкая вероятность.&amp;nbsp;&lt;div&gt;Может вызвать недовольство потенциальных клиентов, снижение уровня продаж&lt;/div&gt;" style="ellipse;whiteSpace=wrap;html=1;align=center;newEdgeStyle={&quot;edgeStyle&quot;:&quot;entityRelationEdgeStyle&quot;,&quot;startArrow&quot;:&quot;none&quot;,&quot;endArrow&quot;:&quot;none&quot;,&quot;segment&quot;:10,&quot;curved&quot;:1,&quot;sourcePerimeterSpacing&quot;:0,&quot;targetPerimeterSpacing&quot;:0};treeFolding=1;treeMoving=1;labelBackgroundColor=none;rounded=0;textShadow=0;labelBorderColor=none;fontSize=10;" vertex="1" parent="1">
          <mxGeometry x="817" y="200" width="200" height="50" as="geometry" />
        </mxCell>
        <mxCell id="Xtbtvbpdz62l11RlzFsb-79" value="Низкая вероятность.&amp;nbsp;&lt;div&gt;Может вызвать недовольство потенциальных клиентов, снижение уровня продаж&lt;/div&gt;" style="ellipse;whiteSpace=wrap;html=1;align=center;newEdgeStyle={&quot;edgeStyle&quot;:&quot;entityRelationEdgeStyle&quot;,&quot;startArrow&quot;:&quot;none&quot;,&quot;endArrow&quot;:&quot;none&quot;,&quot;segment&quot;:10,&quot;curved&quot;:1,&quot;sourcePerimeterSpacing&quot;:0,&quot;targetPerimeterSpacing&quot;:0};treeFolding=1;treeMoving=1;labelBackgroundColor=none;rounded=0;textShadow=0;labelBorderColor=none;fontSize=10;" vertex="1" parent="1">
          <mxGeometry x="817" y="260" width="200" height="50" as="geometry" />
        </mxCell>
        <mxCell id="Xtbtvbpdz62l11RlzFsb-107" style="edgeStyle=entityRelationEdgeStyle;rounded=0;orthogonalLoop=1;jettySize=auto;html=1;startArrow=none;endArrow=none;segment=10;curved=1;sourcePerimeterSpacing=0;targetPerimeterSpacing=0;" edge="1" parent="1" source="Xtbtvbpdz62l11RlzFsb-82" target="Xtbtvbpdz62l11RlzFsb-106">
          <mxGeometry relative="1" as="geometry" />
        </mxCell>
        <mxCell id="Xtbtvbpdz62l11RlzFsb-82" value="Потеря данных&lt;div&gt;Оценка: &lt;b&gt;значительный&lt;/b&gt;&lt;/div&gt;" style="ellipse;whiteSpace=wrap;html=1;align=center;newEdgeStyle={&quot;edgeStyle&quot;:&quot;entityRelationEdgeStyle&quot;,&quot;startArrow&quot;:&quot;none&quot;,&quot;endArrow&quot;:&quot;none&quot;,&quot;segment&quot;:10,&quot;curved&quot;:1,&quot;sourcePerimeterSpacing&quot;:0,&quot;targetPerimeterSpacing&quot;:0};treeFolding=1;treeMoving=1;labelBackgroundColor=none;rounded=0;textShadow=0;labelBorderColor=none;fontSize=10;" vertex="1" parent="1">
          <mxGeometry x="630" y="485" width="140" height="50" as="geometry" />
        </mxCell>
        <mxCell id="Xtbtvbpdz62l11RlzFsb-111" style="edgeStyle=entityRelationEdgeStyle;rounded=0;orthogonalLoop=1;jettySize=auto;html=1;startArrow=none;endArrow=none;segment=10;curved=1;sourcePerimeterSpacing=0;targetPerimeterSpacing=0;" edge="1" parent="1" source="Xtbtvbpdz62l11RlzFsb-83" target="Xtbtvbpdz62l11RlzFsb-108">
          <mxGeometry relative="1" as="geometry" />
        </mxCell>
        <mxCell id="Xtbtvbpdz62l11RlzFsb-83" value="Искажение данных&lt;br&gt;Оценка: &lt;b&gt;значительный&lt;/b&gt;" style="ellipse;whiteSpace=wrap;html=1;align=center;newEdgeStyle={&quot;edgeStyle&quot;:&quot;entityRelationEdgeStyle&quot;,&quot;startArrow&quot;:&quot;none&quot;,&quot;endArrow&quot;:&quot;none&quot;,&quot;segment&quot;:10,&quot;curved&quot;:1,&quot;sourcePerimeterSpacing&quot;:0,&quot;targetPerimeterSpacing&quot;:0};treeFolding=1;treeMoving=1;labelBackgroundColor=none;rounded=0;textShadow=0;labelBorderColor=none;fontSize=10;" vertex="1" parent="1">
          <mxGeometry x="630" y="545" width="140" height="50" as="geometry" />
        </mxCell>
        <mxCell id="Xtbtvbpdz62l11RlzFsb-105" style="edgeStyle=entityRelationEdgeStyle;rounded=0;orthogonalLoop=1;jettySize=auto;html=1;startArrow=none;endArrow=none;segment=10;curved=1;sourcePerimeterSpacing=0;targetPerimeterSpacing=0;" edge="1" parent="1" source="Xtbtvbpdz62l11RlzFsb-84" target="Xtbtvbpdz62l11RlzFsb-104">
          <mxGeometry relative="1" as="geometry" />
        </mxCell>
        <mxCell id="Xtbtvbpdz62l11RlzFsb-84" value="Утечка данных&lt;br&gt;Оценка: &lt;b&gt;значительный&lt;/b&gt;" style="ellipse;whiteSpace=wrap;html=1;align=center;newEdgeStyle={&quot;edgeStyle&quot;:&quot;entityRelationEdgeStyle&quot;,&quot;startArrow&quot;:&quot;none&quot;,&quot;endArrow&quot;:&quot;none&quot;,&quot;segment&quot;:10,&quot;curved&quot;:1,&quot;sourcePerimeterSpacing&quot;:0,&quot;targetPerimeterSpacing&quot;:0};treeFolding=1;treeMoving=1;labelBackgroundColor=none;rounded=0;textShadow=0;labelBorderColor=none;fontSize=10;" vertex="1" parent="1">
          <mxGeometry x="630" y="425" width="140" height="50" as="geometry" />
        </mxCell>
        <mxCell id="Xtbtvbpdz62l11RlzFsb-112" style="edgeStyle=entityRelationEdgeStyle;rounded=0;orthogonalLoop=1;jettySize=auto;html=1;startArrow=none;endArrow=none;segment=10;curved=1;sourcePerimeterSpacing=0;targetPerimeterSpacing=0;" edge="1" parent="1" source="Xtbtvbpdz62l11RlzFsb-85" target="Xtbtvbpdz62l11RlzFsb-109">
          <mxGeometry relative="1" as="geometry" />
        </mxCell>
        <mxCell id="Xtbtvbpdz62l11RlzFsb-85" value="Некачественные данные&lt;br&gt;Оценка:&amp;nbsp;&lt;b&gt;значительный&lt;/b&gt;" style="ellipse;whiteSpace=wrap;html=1;align=center;newEdgeStyle={&quot;edgeStyle&quot;:&quot;entityRelationEdgeStyle&quot;,&quot;startArrow&quot;:&quot;none&quot;,&quot;endArrow&quot;:&quot;none&quot;,&quot;segment&quot;:10,&quot;curved&quot;:1,&quot;sourcePerimeterSpacing&quot;:0,&quot;targetPerimeterSpacing&quot;:0};treeFolding=1;treeMoving=1;labelBackgroundColor=none;rounded=0;textShadow=0;labelBorderColor=none;fontSize=10;" vertex="1" parent="1">
          <mxGeometry x="630" y="605" width="140" height="50" as="geometry" />
        </mxCell>
        <mxCell id="Xtbtvbpdz62l11RlzFsb-113" style="edgeStyle=entityRelationEdgeStyle;rounded=0;orthogonalLoop=1;jettySize=auto;html=1;startArrow=none;endArrow=none;segment=10;curved=1;sourcePerimeterSpacing=0;targetPerimeterSpacing=0;" edge="1" parent="1" source="Xtbtvbpdz62l11RlzFsb-86" target="Xtbtvbpdz62l11RlzFsb-110">
          <mxGeometry relative="1" as="geometry" />
        </mxCell>
        <mxCell id="Xtbtvbpdz62l11RlzFsb-86" value="Обесценивание данных&lt;br&gt;Оценка: &lt;b&gt;незначительный&lt;/b&gt;" style="ellipse;whiteSpace=wrap;html=1;align=center;newEdgeStyle={&quot;edgeStyle&quot;:&quot;entityRelationEdgeStyle&quot;,&quot;startArrow&quot;:&quot;none&quot;,&quot;endArrow&quot;:&quot;none&quot;,&quot;segment&quot;:10,&quot;curved&quot;:1,&quot;sourcePerimeterSpacing&quot;:0,&quot;targetPerimeterSpacing&quot;:0};treeFolding=1;treeMoving=1;labelBackgroundColor=none;rounded=0;textShadow=0;labelBorderColor=none;fontSize=10;" vertex="1" parent="1">
          <mxGeometry x="630" y="665" width="140" height="50" as="geometry" />
        </mxCell>
        <mxCell id="Xtbtvbpdz62l11RlzFsb-120" style="edgeStyle=entityRelationEdgeStyle;rounded=0;orthogonalLoop=1;jettySize=auto;html=1;startArrow=none;endArrow=none;segment=10;curved=1;sourcePerimeterSpacing=0;targetPerimeterSpacing=0;" edge="1" parent="1" source="Xtbtvbpdz62l11RlzFsb-92" target="Xtbtvbpdz62l11RlzFsb-115">
          <mxGeometry relative="1" as="geometry" />
        </mxCell>
        <mxCell id="Xtbtvbpdz62l11RlzFsb-92" value="Потеря данных&lt;div&gt;Оценка: &lt;b&gt;значительный&lt;/b&gt;&lt;/div&gt;" style="ellipse;whiteSpace=wrap;html=1;align=center;newEdgeStyle={&quot;edgeStyle&quot;:&quot;entityRelationEdgeStyle&quot;,&quot;startArrow&quot;:&quot;none&quot;,&quot;endArrow&quot;:&quot;none&quot;,&quot;segment&quot;:10,&quot;curved&quot;:1,&quot;sourcePerimeterSpacing&quot;:0,&quot;targetPerimeterSpacing&quot;:0};treeFolding=1;treeMoving=1;labelBackgroundColor=none;rounded=0;textShadow=0;labelBorderColor=none;fontSize=10;" vertex="1" parent="1">
          <mxGeometry x="630" y="865.79" width="140" height="50" as="geometry" />
        </mxCell>
        <mxCell id="Xtbtvbpdz62l11RlzFsb-121" style="edgeStyle=entityRelationEdgeStyle;rounded=0;orthogonalLoop=1;jettySize=auto;html=1;startArrow=none;endArrow=none;segment=10;curved=1;sourcePerimeterSpacing=0;targetPerimeterSpacing=0;" edge="1" parent="1" source="Xtbtvbpdz62l11RlzFsb-93" target="Xtbtvbpdz62l11RlzFsb-116">
          <mxGeometry relative="1" as="geometry" />
        </mxCell>
        <mxCell id="Xtbtvbpdz62l11RlzFsb-93" value="Искажение данных&lt;br&gt;Оценка:&amp;nbsp;&lt;b&gt;значительный&lt;/b&gt;" style="ellipse;whiteSpace=wrap;html=1;align=center;newEdgeStyle={&quot;edgeStyle&quot;:&quot;entityRelationEdgeStyle&quot;,&quot;startArrow&quot;:&quot;none&quot;,&quot;endArrow&quot;:&quot;none&quot;,&quot;segment&quot;:10,&quot;curved&quot;:1,&quot;sourcePerimeterSpacing&quot;:0,&quot;targetPerimeterSpacing&quot;:0};treeFolding=1;treeMoving=1;labelBackgroundColor=none;rounded=0;textShadow=0;labelBorderColor=none;fontSize=10;" vertex="1" parent="1">
          <mxGeometry x="630" y="925.79" width="140" height="50" as="geometry" />
        </mxCell>
        <mxCell id="Xtbtvbpdz62l11RlzFsb-119" style="edgeStyle=entityRelationEdgeStyle;rounded=0;orthogonalLoop=1;jettySize=auto;html=1;startArrow=none;endArrow=none;segment=10;curved=1;sourcePerimeterSpacing=0;targetPerimeterSpacing=0;" edge="1" parent="1" source="Xtbtvbpdz62l11RlzFsb-94" target="Xtbtvbpdz62l11RlzFsb-114">
          <mxGeometry relative="1" as="geometry" />
        </mxCell>
        <mxCell id="Xtbtvbpdz62l11RlzFsb-94" value="Утечка данных&lt;br&gt;Оценка: &lt;b&gt;критический&lt;/b&gt;" style="ellipse;whiteSpace=wrap;html=1;align=center;newEdgeStyle={&quot;edgeStyle&quot;:&quot;entityRelationEdgeStyle&quot;,&quot;startArrow&quot;:&quot;none&quot;,&quot;endArrow&quot;:&quot;none&quot;,&quot;segment&quot;:10,&quot;curved&quot;:1,&quot;sourcePerimeterSpacing&quot;:0,&quot;targetPerimeterSpacing&quot;:0};treeFolding=1;treeMoving=1;labelBackgroundColor=none;rounded=0;textShadow=0;labelBorderColor=none;fontSize=10;" vertex="1" parent="1">
          <mxGeometry x="630" y="805.79" width="140" height="50" as="geometry" />
        </mxCell>
        <mxCell id="Xtbtvbpdz62l11RlzFsb-122" style="edgeStyle=entityRelationEdgeStyle;rounded=0;orthogonalLoop=1;jettySize=auto;html=1;startArrow=none;endArrow=none;segment=10;curved=1;sourcePerimeterSpacing=0;targetPerimeterSpacing=0;" edge="1" parent="1" source="Xtbtvbpdz62l11RlzFsb-95" target="Xtbtvbpdz62l11RlzFsb-117">
          <mxGeometry relative="1" as="geometry" />
        </mxCell>
        <mxCell id="Xtbtvbpdz62l11RlzFsb-95" value="Некачественные данные&lt;br&gt;Оценка:&amp;nbsp;&lt;b&gt;критический&lt;/b&gt;" style="ellipse;whiteSpace=wrap;html=1;align=center;newEdgeStyle={&quot;edgeStyle&quot;:&quot;entityRelationEdgeStyle&quot;,&quot;startArrow&quot;:&quot;none&quot;,&quot;endArrow&quot;:&quot;none&quot;,&quot;segment&quot;:10,&quot;curved&quot;:1,&quot;sourcePerimeterSpacing&quot;:0,&quot;targetPerimeterSpacing&quot;:0};treeFolding=1;treeMoving=1;labelBackgroundColor=none;rounded=0;textShadow=0;labelBorderColor=none;fontSize=10;" vertex="1" parent="1">
          <mxGeometry x="630" y="985.79" width="140" height="50" as="geometry" />
        </mxCell>
        <mxCell id="Xtbtvbpdz62l11RlzFsb-123" style="edgeStyle=entityRelationEdgeStyle;rounded=0;orthogonalLoop=1;jettySize=auto;html=1;startArrow=none;endArrow=none;segment=10;curved=1;sourcePerimeterSpacing=0;targetPerimeterSpacing=0;" edge="1" parent="1" source="Xtbtvbpdz62l11RlzFsb-96" target="Xtbtvbpdz62l11RlzFsb-118">
          <mxGeometry relative="1" as="geometry" />
        </mxCell>
        <mxCell id="Xtbtvbpdz62l11RlzFsb-96" value="Обесценивание данных&lt;br&gt;Оценка: &lt;b&gt;значительный&lt;/b&gt;" style="ellipse;whiteSpace=wrap;html=1;align=center;newEdgeStyle={&quot;edgeStyle&quot;:&quot;entityRelationEdgeStyle&quot;,&quot;startArrow&quot;:&quot;none&quot;,&quot;endArrow&quot;:&quot;none&quot;,&quot;segment&quot;:10,&quot;curved&quot;:1,&quot;sourcePerimeterSpacing&quot;:0,&quot;targetPerimeterSpacing&quot;:0};treeFolding=1;treeMoving=1;labelBackgroundColor=none;rounded=0;textShadow=0;labelBorderColor=none;fontSize=10;" vertex="1" parent="1">
          <mxGeometry x="630" y="1045.79" width="140" height="50" as="geometry" />
        </mxCell>
        <mxCell id="Xtbtvbpdz62l11RlzFsb-104" value="Данные могут попасть конкурентам или злоумышленникам" style="ellipse;whiteSpace=wrap;html=1;align=center;newEdgeStyle={&quot;edgeStyle&quot;:&quot;entityRelationEdgeStyle&quot;,&quot;startArrow&quot;:&quot;none&quot;,&quot;endArrow&quot;:&quot;none&quot;,&quot;segment&quot;:10,&quot;curved&quot;:1,&quot;sourcePerimeterSpacing&quot;:0,&quot;targetPerimeterSpacing&quot;:0};treeFolding=1;treeMoving=1;labelBackgroundColor=none;rounded=0;textShadow=0;labelBorderColor=none;fontSize=10;" vertex="1" parent="1">
          <mxGeometry x="827" y="425" width="200" height="50" as="geometry" />
        </mxCell>
        <mxCell id="Xtbtvbpdz62l11RlzFsb-106" value="Замедленые работы компании" style="ellipse;whiteSpace=wrap;html=1;align=center;newEdgeStyle={&quot;edgeStyle&quot;:&quot;entityRelationEdgeStyle&quot;,&quot;startArrow&quot;:&quot;none&quot;,&quot;endArrow&quot;:&quot;none&quot;,&quot;segment&quot;:10,&quot;curved&quot;:1,&quot;sourcePerimeterSpacing&quot;:0,&quot;targetPerimeterSpacing&quot;:0};treeFolding=1;treeMoving=1;labelBackgroundColor=none;rounded=0;textShadow=0;labelBorderColor=none;fontSize=10;" vertex="1" parent="1">
          <mxGeometry x="827" y="485" width="200" height="50" as="geometry" />
        </mxCell>
        <mxCell id="Xtbtvbpdz62l11RlzFsb-108" value="Ошибки в принятии решений сотрудниками компании" style="ellipse;whiteSpace=wrap;html=1;align=center;newEdgeStyle={&quot;edgeStyle&quot;:&quot;entityRelationEdgeStyle&quot;,&quot;startArrow&quot;:&quot;none&quot;,&quot;endArrow&quot;:&quot;none&quot;,&quot;segment&quot;:10,&quot;curved&quot;:1,&quot;sourcePerimeterSpacing&quot;:0,&quot;targetPerimeterSpacing&quot;:0};treeFolding=1;treeMoving=1;labelBackgroundColor=none;rounded=0;textShadow=0;labelBorderColor=none;fontSize=10;" vertex="1" parent="1">
          <mxGeometry x="827" y="545" width="200" height="50" as="geometry" />
        </mxCell>
        <mxCell id="Xtbtvbpdz62l11RlzFsb-109" value="Ошибки в принятии решений сотрудниками компании" style="ellipse;whiteSpace=wrap;html=1;align=center;newEdgeStyle={&quot;edgeStyle&quot;:&quot;entityRelationEdgeStyle&quot;,&quot;startArrow&quot;:&quot;none&quot;,&quot;endArrow&quot;:&quot;none&quot;,&quot;segment&quot;:10,&quot;curved&quot;:1,&quot;sourcePerimeterSpacing&quot;:0,&quot;targetPerimeterSpacing&quot;:0};treeFolding=1;treeMoving=1;labelBackgroundColor=none;rounded=0;textShadow=0;labelBorderColor=none;fontSize=10;" vertex="1" parent="1">
          <mxGeometry x="827" y="605" width="200" height="50" as="geometry" />
        </mxCell>
        <mxCell id="Xtbtvbpdz62l11RlzFsb-110" value="низкая вероятность" style="ellipse;whiteSpace=wrap;html=1;align=center;newEdgeStyle={&quot;edgeStyle&quot;:&quot;entityRelationEdgeStyle&quot;,&quot;startArrow&quot;:&quot;none&quot;,&quot;endArrow&quot;:&quot;none&quot;,&quot;segment&quot;:10,&quot;curved&quot;:1,&quot;sourcePerimeterSpacing&quot;:0,&quot;targetPerimeterSpacing&quot;:0};treeFolding=1;treeMoving=1;labelBackgroundColor=none;rounded=0;textShadow=0;labelBorderColor=none;fontSize=10;" vertex="1" parent="1">
          <mxGeometry x="827" y="665" width="200" height="50" as="geometry" />
        </mxCell>
        <mxCell id="Xtbtvbpdz62l11RlzFsb-114" value="Высокая вероятность&lt;br&gt;Нарушениие ФЗ 152, штрафы, репутационные и финансовые потери" style="ellipse;whiteSpace=wrap;html=1;align=center;newEdgeStyle={&quot;edgeStyle&quot;:&quot;entityRelationEdgeStyle&quot;,&quot;startArrow&quot;:&quot;none&quot;,&quot;endArrow&quot;:&quot;none&quot;,&quot;segment&quot;:10,&quot;curved&quot;:1,&quot;sourcePerimeterSpacing&quot;:0,&quot;targetPerimeterSpacing&quot;:0};treeFolding=1;treeMoving=1;labelBackgroundColor=none;rounded=0;textShadow=0;labelBorderColor=none;fontSize=10;" vertex="1" parent="1">
          <mxGeometry x="827" y="805.79" width="233" height="50" as="geometry" />
        </mxCell>
        <mxCell id="Xtbtvbpdz62l11RlzFsb-115" value="Вероятность средняя&lt;br&gt;Нарушениие ФЗ 152, штрафы, репутационные и финансовые потери" style="ellipse;whiteSpace=wrap;html=1;align=center;newEdgeStyle={&quot;edgeStyle&quot;:&quot;entityRelationEdgeStyle&quot;,&quot;startArrow&quot;:&quot;none&quot;,&quot;endArrow&quot;:&quot;none&quot;,&quot;segment&quot;:10,&quot;curved&quot;:1,&quot;sourcePerimeterSpacing&quot;:0,&quot;targetPerimeterSpacing&quot;:0};treeFolding=1;treeMoving=1;labelBackgroundColor=none;rounded=0;textShadow=0;labelBorderColor=none;fontSize=10;" vertex="1" parent="1">
          <mxGeometry x="827" y="865.79" width="233" height="50" as="geometry" />
        </mxCell>
        <mxCell id="Xtbtvbpdz62l11RlzFsb-116" value="Вероятность средняя&lt;br&gt;Нарушениие ФЗ 152, штрафы, репутационные и финансовые потери" style="ellipse;whiteSpace=wrap;html=1;align=center;newEdgeStyle={&quot;edgeStyle&quot;:&quot;entityRelationEdgeStyle&quot;,&quot;startArrow&quot;:&quot;none&quot;,&quot;endArrow&quot;:&quot;none&quot;,&quot;segment&quot;:10,&quot;curved&quot;:1,&quot;sourcePerimeterSpacing&quot;:0,&quot;targetPerimeterSpacing&quot;:0};treeFolding=1;treeMoving=1;labelBackgroundColor=none;rounded=0;textShadow=0;labelBorderColor=none;fontSize=10;" vertex="1" parent="1">
          <mxGeometry x="827" y="925.79" width="233" height="50" as="geometry" />
        </mxCell>
        <mxCell id="Xtbtvbpdz62l11RlzFsb-117" value="Высокая вероятность&lt;div&gt;Ошибки при заключении сделок -&amp;gt; финансовые, юридические, репутационные последствия&lt;/div&gt;" style="ellipse;whiteSpace=wrap;html=1;align=center;newEdgeStyle={&quot;edgeStyle&quot;:&quot;entityRelationEdgeStyle&quot;,&quot;startArrow&quot;:&quot;none&quot;,&quot;endArrow&quot;:&quot;none&quot;,&quot;segment&quot;:10,&quot;curved&quot;:1,&quot;sourcePerimeterSpacing&quot;:0,&quot;targetPerimeterSpacing&quot;:0};treeFolding=1;treeMoving=1;labelBackgroundColor=none;rounded=0;textShadow=0;labelBorderColor=none;fontSize=10;" vertex="1" parent="1">
          <mxGeometry x="827" y="985.79" width="233" height="50" as="geometry" />
        </mxCell>
        <mxCell id="Xtbtvbpdz62l11RlzFsb-118" value="Вероятность низкая" style="ellipse;whiteSpace=wrap;html=1;align=center;newEdgeStyle={&quot;edgeStyle&quot;:&quot;entityRelationEdgeStyle&quot;,&quot;startArrow&quot;:&quot;none&quot;,&quot;endArrow&quot;:&quot;none&quot;,&quot;segment&quot;:10,&quot;curved&quot;:1,&quot;sourcePerimeterSpacing&quot;:0,&quot;targetPerimeterSpacing&quot;:0};treeFolding=1;treeMoving=1;labelBackgroundColor=none;rounded=0;textShadow=0;labelBorderColor=none;fontSize=10;" vertex="1" parent="1">
          <mxGeometry x="827" y="1045.79" width="233" height="50" as="geometry" />
        </mxCell>
        <mxCell id="Xtbtvbpdz62l11RlzFsb-129" style="edgeStyle=entityRelationEdgeStyle;rounded=0;orthogonalLoop=1;jettySize=auto;html=1;startArrow=none;endArrow=none;segment=10;curved=1;sourcePerimeterSpacing=0;targetPerimeterSpacing=0;" edge="1" parent="1" source="Xtbtvbpdz62l11RlzFsb-130" target="Xtbtvbpdz62l11RlzFsb-140">
          <mxGeometry relative="1" as="geometry" />
        </mxCell>
        <mxCell id="Xtbtvbpdz62l11RlzFsb-130" value="Потеря данных&lt;div&gt;Оценка:&amp;nbsp;&lt;b style=&quot;background-color: transparent; color: light-dark(rgb(0, 0, 0), rgb(255, 255, 255));&quot;&gt;критический&lt;/b&gt;&lt;/div&gt;" style="ellipse;whiteSpace=wrap;html=1;align=center;newEdgeStyle={&quot;edgeStyle&quot;:&quot;entityRelationEdgeStyle&quot;,&quot;startArrow&quot;:&quot;none&quot;,&quot;endArrow&quot;:&quot;none&quot;,&quot;segment&quot;:10,&quot;curved&quot;:1,&quot;sourcePerimeterSpacing&quot;:0,&quot;targetPerimeterSpacing&quot;:0};treeFolding=1;treeMoving=1;labelBackgroundColor=none;rounded=0;textShadow=0;labelBorderColor=none;fontSize=10;" vertex="1" parent="1">
          <mxGeometry x="630" y="1253" width="140" height="50" as="geometry" />
        </mxCell>
        <mxCell id="Xtbtvbpdz62l11RlzFsb-131" style="edgeStyle=entityRelationEdgeStyle;rounded=0;orthogonalLoop=1;jettySize=auto;html=1;startArrow=none;endArrow=none;segment=10;curved=1;sourcePerimeterSpacing=0;targetPerimeterSpacing=0;" edge="1" parent="1" source="Xtbtvbpdz62l11RlzFsb-132" target="Xtbtvbpdz62l11RlzFsb-141">
          <mxGeometry relative="1" as="geometry" />
        </mxCell>
        <mxCell id="Xtbtvbpdz62l11RlzFsb-132" value="Искажение данных&lt;br&gt;Оценка:&amp;nbsp;&lt;b&gt;критический&lt;/b&gt;" style="ellipse;whiteSpace=wrap;html=1;align=center;newEdgeStyle={&quot;edgeStyle&quot;:&quot;entityRelationEdgeStyle&quot;,&quot;startArrow&quot;:&quot;none&quot;,&quot;endArrow&quot;:&quot;none&quot;,&quot;segment&quot;:10,&quot;curved&quot;:1,&quot;sourcePerimeterSpacing&quot;:0,&quot;targetPerimeterSpacing&quot;:0};treeFolding=1;treeMoving=1;labelBackgroundColor=none;rounded=0;textShadow=0;labelBorderColor=none;fontSize=10;" vertex="1" parent="1">
          <mxGeometry x="630" y="1313" width="140" height="50" as="geometry" />
        </mxCell>
        <mxCell id="Xtbtvbpdz62l11RlzFsb-133" style="edgeStyle=entityRelationEdgeStyle;rounded=0;orthogonalLoop=1;jettySize=auto;html=1;startArrow=none;endArrow=none;segment=10;curved=1;sourcePerimeterSpacing=0;targetPerimeterSpacing=0;" edge="1" parent="1" source="Xtbtvbpdz62l11RlzFsb-134" target="Xtbtvbpdz62l11RlzFsb-139">
          <mxGeometry relative="1" as="geometry" />
        </mxCell>
        <mxCell id="Xtbtvbpdz62l11RlzFsb-134" value="Утечка данных&lt;br&gt;Оценка: &lt;b&gt;критический&lt;/b&gt;" style="ellipse;whiteSpace=wrap;html=1;align=center;newEdgeStyle={&quot;edgeStyle&quot;:&quot;entityRelationEdgeStyle&quot;,&quot;startArrow&quot;:&quot;none&quot;,&quot;endArrow&quot;:&quot;none&quot;,&quot;segment&quot;:10,&quot;curved&quot;:1,&quot;sourcePerimeterSpacing&quot;:0,&quot;targetPerimeterSpacing&quot;:0};treeFolding=1;treeMoving=1;labelBackgroundColor=none;rounded=0;textShadow=0;labelBorderColor=none;fontSize=10;" vertex="1" parent="1">
          <mxGeometry x="630" y="1193" width="140" height="50" as="geometry" />
        </mxCell>
        <mxCell id="Xtbtvbpdz62l11RlzFsb-135" style="edgeStyle=entityRelationEdgeStyle;rounded=0;orthogonalLoop=1;jettySize=auto;html=1;startArrow=none;endArrow=none;segment=10;curved=1;sourcePerimeterSpacing=0;targetPerimeterSpacing=0;" edge="1" parent="1" source="Xtbtvbpdz62l11RlzFsb-136" target="Xtbtvbpdz62l11RlzFsb-142">
          <mxGeometry relative="1" as="geometry" />
        </mxCell>
        <mxCell id="Xtbtvbpdz62l11RlzFsb-136" value="Некачественные данные&lt;br&gt;Оценка: &lt;b&gt;критический&lt;/b&gt;" style="ellipse;whiteSpace=wrap;html=1;align=center;newEdgeStyle={&quot;edgeStyle&quot;:&quot;entityRelationEdgeStyle&quot;,&quot;startArrow&quot;:&quot;none&quot;,&quot;endArrow&quot;:&quot;none&quot;,&quot;segment&quot;:10,&quot;curved&quot;:1,&quot;sourcePerimeterSpacing&quot;:0,&quot;targetPerimeterSpacing&quot;:0};treeFolding=1;treeMoving=1;labelBackgroundColor=none;rounded=0;textShadow=0;labelBorderColor=none;fontSize=10;" vertex="1" parent="1">
          <mxGeometry x="630" y="1373" width="140" height="50" as="geometry" />
        </mxCell>
        <mxCell id="Xtbtvbpdz62l11RlzFsb-137" style="edgeStyle=entityRelationEdgeStyle;rounded=0;orthogonalLoop=1;jettySize=auto;html=1;startArrow=none;endArrow=none;segment=10;curved=1;sourcePerimeterSpacing=0;targetPerimeterSpacing=0;" edge="1" parent="1" source="Xtbtvbpdz62l11RlzFsb-138" target="Xtbtvbpdz62l11RlzFsb-143">
          <mxGeometry relative="1" as="geometry" />
        </mxCell>
        <mxCell id="Xtbtvbpdz62l11RlzFsb-138" value="Обесценивание данных&lt;br&gt;Оценка: &lt;b&gt;значительный&lt;/b&gt;" style="ellipse;whiteSpace=wrap;html=1;align=center;newEdgeStyle={&quot;edgeStyle&quot;:&quot;entityRelationEdgeStyle&quot;,&quot;startArrow&quot;:&quot;none&quot;,&quot;endArrow&quot;:&quot;none&quot;,&quot;segment&quot;:10,&quot;curved&quot;:1,&quot;sourcePerimeterSpacing&quot;:0,&quot;targetPerimeterSpacing&quot;:0};treeFolding=1;treeMoving=1;labelBackgroundColor=none;rounded=0;textShadow=0;labelBorderColor=none;fontSize=10;" vertex="1" parent="1">
          <mxGeometry x="630" y="1433" width="140" height="50" as="geometry" />
        </mxCell>
        <mxCell id="Xtbtvbpdz62l11RlzFsb-139" value="Высокая вероятность&lt;div&gt;репутационные потери&lt;/div&gt;" style="ellipse;whiteSpace=wrap;html=1;align=center;newEdgeStyle={&quot;edgeStyle&quot;:&quot;entityRelationEdgeStyle&quot;,&quot;startArrow&quot;:&quot;none&quot;,&quot;endArrow&quot;:&quot;none&quot;,&quot;segment&quot;:10,&quot;curved&quot;:1,&quot;sourcePerimeterSpacing&quot;:0,&quot;targetPerimeterSpacing&quot;:0};treeFolding=1;treeMoving=1;labelBackgroundColor=none;rounded=0;textShadow=0;labelBorderColor=none;fontSize=10;" vertex="1" parent="1">
          <mxGeometry x="827" y="1193" width="200" height="50" as="geometry" />
        </mxCell>
        <mxCell id="Xtbtvbpdz62l11RlzFsb-140" value="Вероятность средняя" style="ellipse;whiteSpace=wrap;html=1;align=center;newEdgeStyle={&quot;edgeStyle&quot;:&quot;entityRelationEdgeStyle&quot;,&quot;startArrow&quot;:&quot;none&quot;,&quot;endArrow&quot;:&quot;none&quot;,&quot;segment&quot;:10,&quot;curved&quot;:1,&quot;sourcePerimeterSpacing&quot;:0,&quot;targetPerimeterSpacing&quot;:0};treeFolding=1;treeMoving=1;labelBackgroundColor=none;rounded=0;textShadow=0;labelBorderColor=none;fontSize=10;" vertex="1" parent="1">
          <mxGeometry x="827" y="1253" width="200" height="50" as="geometry" />
        </mxCell>
        <mxCell id="Xtbtvbpdz62l11RlzFsb-141" value="&lt;div&gt;Высокая вероятность&lt;/div&gt;Финансовые и репутационные потери" style="ellipse;whiteSpace=wrap;html=1;align=center;newEdgeStyle={&quot;edgeStyle&quot;:&quot;entityRelationEdgeStyle&quot;,&quot;startArrow&quot;:&quot;none&quot;,&quot;endArrow&quot;:&quot;none&quot;,&quot;segment&quot;:10,&quot;curved&quot;:1,&quot;sourcePerimeterSpacing&quot;:0,&quot;targetPerimeterSpacing&quot;:0};treeFolding=1;treeMoving=1;labelBackgroundColor=none;rounded=0;textShadow=0;labelBorderColor=none;fontSize=10;" vertex="1" parent="1">
          <mxGeometry x="827" y="1313" width="200" height="50" as="geometry" />
        </mxCell>
        <mxCell id="Xtbtvbpdz62l11RlzFsb-142" value="&lt;div&gt;Высокая вероятность&lt;/div&gt;Финансовые и репутационные потери" style="ellipse;whiteSpace=wrap;html=1;align=center;newEdgeStyle={&quot;edgeStyle&quot;:&quot;entityRelationEdgeStyle&quot;,&quot;startArrow&quot;:&quot;none&quot;,&quot;endArrow&quot;:&quot;none&quot;,&quot;segment&quot;:10,&quot;curved&quot;:1,&quot;sourcePerimeterSpacing&quot;:0,&quot;targetPerimeterSpacing&quot;:0};treeFolding=1;treeMoving=1;labelBackgroundColor=none;rounded=0;textShadow=0;labelBorderColor=none;fontSize=10;" vertex="1" parent="1">
          <mxGeometry x="827" y="1373" width="200" height="50" as="geometry" />
        </mxCell>
        <mxCell id="Xtbtvbpdz62l11RlzFsb-143" value="Вроятность низкая" style="ellipse;whiteSpace=wrap;html=1;align=center;newEdgeStyle={&quot;edgeStyle&quot;:&quot;entityRelationEdgeStyle&quot;,&quot;startArrow&quot;:&quot;none&quot;,&quot;endArrow&quot;:&quot;none&quot;,&quot;segment&quot;:10,&quot;curved&quot;:1,&quot;sourcePerimeterSpacing&quot;:0,&quot;targetPerimeterSpacing&quot;:0};treeFolding=1;treeMoving=1;labelBackgroundColor=none;rounded=0;textShadow=0;labelBorderColor=none;fontSize=10;" vertex="1" parent="1">
          <mxGeometry x="827" y="1433" width="200" height="50" as="geometry" />
        </mxCell>
      </root>
    </mxGraphModel>
  </diagram>
</mxfile>
